<?xml version="1.0" encoding="utf-8"?>
<!-- Generator: Adobe Illustrator 28.3.0, SVG Export Plug-In . SVG Version: 6.00 Build 0)  -->
<svg version="1.1" id="Layer_1" xmlns="http://www.w3.org/2000/svg" xmlns:xlink="http://www.w3.org/1999/xlink" x="0px" y="0px"
	 viewBox="0 0 29 29" style="enable-background:new 0 0 29 29;" xml:space="preserve">
<style type="text/css">
	.st0{fill-rule:evenodd;clip-rule:evenodd;fill:#333333;}
</style>
<path id="AK" class="st0" d="M-1.9,23.8C-1.9,23.7-1.9,23.7-1.9,23.8L-1.9,23.8z M-1,23.8C-0.9,23.7-0.9,23.7-1,23.8L-1,23.8z
	 M-0.3,24L-0.3,24C-0.3,23.9-0.3,24-0.3,24L-0.3,24z M-0.9,23.6C-0.9,23.6-0.9,23.6-0.9,23.6C-0.9,23.6-0.9,23.6-0.9,23.6z
	 M0.3,23.9L0.3,23.9C0.3,23.9,0.3,23.9,0.3,23.9z M-0.6,23.6l0-0.1C-0.6,23.5-0.6,23.6-0.6,23.6z M2.3,23.4
	C2.3,23.4,2.3,23.3,2.3,23.4C2.3,23.3,2.3,23.4,2.3,23.4z M1.9,23.2l-0.6,0.5c0.3,0.1,0.7-0.2,0.9-0.4C2.2,23.3,1.9,23.2,1.9,23.2z
	 M3,23.4l-0.1,0C2.9,23.4,2.9,23.5,3,23.4L3,23.4z M3.2,23.4c0,0-0.2-0.1-0.2,0L3.2,23.4z M2.5,23.2H2.4l0.3,0.1L2.5,23.2z
	 M3.3,23.4C3.3,23.3,3.3,23.4,3.3,23.4C3.2,23.4,3.3,23.4,3.3,23.4z M2.8,23.2L2.8,23.2l-0.1,0.2L2.8,23.2z M27.3,21.7l-0.2,0.1
	l0.1,0.1L27.3,21.7L27.3,21.7z M4.3,22.6c-0.3,0-0.7,0.3-0.8,0.6L4.3,22.6L4.3,22.6z M5,22.4l0.1,0C5.1,22.4,5,22.4,5,22.4L5,22.4z
	 M4.8,22.3L4.8,22.3C4.8,22.3,4.8,22.3,4.8,22.3L4.8,22.3z M26.9,20.6l-0.2,0.6C27,21.2,26.9,20.9,26.9,20.6z M6.5,22L6.5,22L6.5,22
	L6.5,22z M25.3,20.7c0.2,0.6,1.1,1.2,1.6,1.5C26.8,21.7,25.9,20.6,25.3,20.7z M25.8,20.4l-0.1,0.3C25.9,20.6,25.8,20.5,25.8,20.4
	L25.8,20.4z M26.2,20.4c0,0.1,0,0.2,0.1,0.2L26.2,20.4L26.2,20.4z M7.6,21.4L7.6,21.4L7.6,21.4L7.6,21.4z M7.7,21.4
	C7.7,21.4,7.7,21.4,7.7,21.4L7.7,21.4z M25.5,20.1l0.1,0.3l0.2-0.1L25.5,20.1L25.5,20.1z M8.1,21.2L8.1,21.2L8.1,21.2z M24.8,20.2
	l0.1,0.8C25.2,20.9,24.8,20.4,24.8,20.2z M24.9,20l0.4,0.6C25.3,20.2,25.1,20,24.9,20z M9.8,20.9L9.8,20.9L9.8,20.9z M23.7,19.8
	l0.7,1.1C24.4,20.5,24.2,20,23.7,19.8z M12,20.5c-1.8,1.4-0.6,1.5,0.6,0.4L12,20.5z M22.9,19.4l-0.1-0.1v0.1
	C22.8,19.4,22.9,19.4,22.9,19.4z M23.3,19l-0.3,0.2C23.2,19.3,23.3,19.4,23.3,19z M23.7,18.7l0.7,1C24.3,19.4,24.4,18.6,23.7,18.7z
	 M12.3,19.9c-0.8,0.5-0.1,0.6,0.3,0.1L12.3,19.9L12.3,19.9z M12.5,18C12.5,18,12.5,17.9,12.5,18C12.4,17.9,12.5,18,12.5,18z
	 M0.5,14.7L0.5,14.7L0.5,14.7z M13.9,16.8L13.9,16.8L13.9,16.8z M4.9,14.7l0-0.1C4.9,14.6,4.9,14.7,4.9,14.7L4.9,14.7z M5,14.5
	C4.9,14.5,4.9,14.5,5,14.5C4.9,14.5,5,14.5,5,14.5z M5.7,14.1L5.7,14.1L5.7,14.1z M5.7,14L5.7,14L5.7,14L5.7,14z M6,13.6L6,13.6
	L6,13.6z M6.1,13.6L6.1,13.6C6,13.6,6.1,13.6,6.1,13.6L6.1,13.6z M6,13.6L6,13.6L6,13.6L6,13.6z M3.3,12.7c0,0,0-0.1-0.1-0.1
	C3.2,12.6,3.3,12.7,3.3,12.7z M3.5,12.4C3.5,12.4,3.6,12.4,3.5,12.4C3.6,12.5,3.5,12.4,3.5,12.4z M3.1,12.3l-0.1-0.2
	C2.9,12.2,3,12.3,3.1,12.3z M2.8,12.1L2.8,12.1L2.8,12.1L2.8,12.1L2.8,12.1z M2.8,11.9L2.8,11.9L2.8,11.9L2.8,11.9z M2.8,11.9
	L2.8,11.9L2.8,11.9L2.8,11.9z M7.4,13.2l-0.2,0C7.2,13.3,7.3,13.3,7.4,13.2z M5.6,11.8L5.6,11.8C5.6,11.7,5.6,11.8,5.6,11.8
	L5.6,11.8z M4.7,9.9L4.7,9.9C4.7,9.9,4.7,9.9,4.7,9.9L4.7,9.9z M5.2,10.1L5.2,10.1C5.3,10.1,5.3,10.1,5.2,10.1L5.2,10.1z M5.6,10
	c0,0,0.2-0.1,0.2-0.1L5.6,10L5.6,10z M6.2,9.8L6.2,9.8L6.2,9.8L6.2,9.8L6.2,9.8z M6.3,9.8l0.1-0.1C6.4,9.7,6.3,9.8,6.3,9.8L6.3,9.8z
	 M6.6,9.7C6.6,9.7,6.5,9.7,6.6,9.7C6.5,9.7,6.6,9.7,6.6,9.7z M6.7,9.7L6.7,9.7L6.7,9.7L6.7,9.7z M17.6,6.6c0,0-0.1-0.1-0.2-0.1
	C17.4,6.5,17.6,6.6,17.6,6.6z M8.6,6.2L8.8,6C8.7,6,8.6,6.1,8.6,6.2z M8.8,5.9l0.1-0.1C8.8,5.9,8.8,5.9,8.8,5.9L8.8,5.9z M8.9,5.8
	L9,5.7C9,5.7,8.9,5.8,8.9,5.8L8.9,5.8z M14.3,5.8c0,0,0.1,0.1,0.1,0.1L14.3,5.8z M11.6,4.7c-0.3,0.2-0.7,0.8-1.1,0.5
	C9.6,5.5,8.6,6.1,8.1,6.9C5.8,7,7.7,8.6,8.5,9.4c-0.4,0.5,0.3,0.5,0.6,0.7C8.8,10.3,8.5,10,8.3,9.8C9,11.2,7.5,10,7.2,9.6
	c-0.5,0-1.6,0.4-2.1,0.6c1,1.1,0.3,1.6,2.2,2.1c0.3,0,1.1-0.9,1.1-0.1c0,1.4-1.1,0.9-2,1.5c0-0.7-0.7,0.1-0.8,0.4
	c-0.6,0.2-1.3,1.3-0.5,1.6c-0.6,0.8,0.7,2,1.4,1.4c-0.2,0.8-0.2,1.5,0.8,1.5C7.6,19,8.2,19,8.5,19c0.2,0.4,0.7,0.3,1,0.1
	c-0.5,1.6-1.8,2.1-3,3c-0.6-0.4-1.5,0.3-1.9,0.6c0.3,0,1.6-0.7,1.6-0.1c0.1,0.1,2.1-1,1.9-0.4c0.9-1.1,2.7-1.8,3.7-2.8
	c-0.8-0.7,1.5-3.3,2.5-2.5c-1.1,0-1.5,1.1-1.3,2.1c0.8-0.2,2.9-1.1,2.2-2.2c0.3,0.1,0.7,0.1,0.9-0.1c0.1,0.1,1.4,0.6,1.1,0.9
	c0.5,0,2.8,0.5,3.2,0.1c0.9,0.7,3.3,2.4,2.8-0.2c0.1,0.8,1.8,1.3,1.9,2.1c0.6,0.3,1.6,0.9,1.6,1.6l0.3-0.7l0.6,1.2
	c1-1.1-0.1-1.8-1.2-1.7c-0.7-0.7-2.4-2.3-3.1-2.8c-0.3,0.2-0.9,1-1.3,0.8c-0.5-0.5-1.6-0.9-2.3-0.8C19.2,16.6,18.4,6.1,17,6.2
	c-1.2,0.5-2.5-0.6-3.7-0.3c-0.1-0.7-1.1-0.3-1.2-0.9l-0.4,0.4L11.6,4.7L11.6,4.7z"/>
</svg>
