<?xml version="1.0" encoding="utf-8"?>
<!-- Generator: Adobe Illustrator 28.3.0, SVG Export Plug-In . SVG Version: 6.00 Build 0)  -->
<svg version="1.1" id="Layer_1" xmlns="http://www.w3.org/2000/svg" xmlns:xlink="http://www.w3.org/1999/xlink" x="0px" y="0px"
	 viewBox="0 0 29 29" style="enable-background:new 0 0 29 29;" xml:space="preserve">
<style type="text/css">
	.st0{fill-rule:evenodd;clip-rule:evenodd;fill:#333333;}
</style>
<path id="AK" class="st0" d="M90.7-40.6C90.7-40.7,90.8-40.7,90.7-40.6L90.7-40.6z M91.6-40.6C91.7-40.6,91.7-40.6,91.6-40.6
	L91.6-40.6z M92.3-40.4L92.3-40.4C92.3-40.4,92.3-40.4,92.3-40.4L92.3-40.4z M91.8-40.7C91.7-40.8,91.7-40.8,91.8-40.7
	C91.7-40.8,91.8-40.7,91.8-40.7z M92.9-40.5L92.9-40.5C92.9-40.4,92.9-40.5,92.9-40.5z M92-40.7l0-0.1C92-40.9,92-40.7,92-40.7z
	 M94.9-41C94.9-41,94.9-41,94.9-41C94.9-41,94.9-41,94.9-41z M94.5-41.1l-0.6,0.5c0.3,0.1,0.7-0.2,0.9-0.4
	C94.8-41,94.5-41.1,94.5-41.1z M95.6-41l-0.1,0C95.5-41,95.5-40.9,95.6-41L95.6-41z M95.8-40.9c0,0-0.2-0.1-0.2,0L95.8-40.9z
	 M95.2-41.2H95l0.3,0.1L95.2-41.2z M95.9-41C95.9-41.1,95.9-41,95.9-41C95.9-41,95.9-41,95.9-41z M95.4-41.2L95.4-41.2l-0.1,0.2
	L95.4-41.2z M119.9-42.7l-0.2,0.1l0.1,0.1L119.9-42.7L119.9-42.7z M96.9-41.8c-0.3,0-0.7,0.3-0.8,0.6L96.9-41.8L96.9-41.8z
	 M97.6-41.9l0.1,0C97.7-42,97.6-41.9,97.6-41.9L97.6-41.9z M97.4-42L97.4-42C97.4-42.1,97.4-42,97.4-42L97.4-42z M119.5-43.7
	l-0.2,0.6C119.6-43.1,119.5-43.5,119.5-43.7z M99.1-42.4L99.1-42.4L99.1-42.4L99.1-42.4z M117.9-43.7c0.2,0.6,1.1,1.2,1.6,1.5
	C119.4-42.7,118.5-43.8,117.9-43.7z M118.4-44l-0.1,0.3C118.5-43.7,118.5-43.8,118.4-44L118.4-44z M118.8-44c0,0.1,0,0.2,0.1,0.2
	L118.8-44L118.8-44z M100.2-43L100.2-43L100.2-43L100.2-43z M100.3-43C100.3-43,100.3-43,100.3-43L100.3-43z M118.1-44.3l0.1,0.3
	l0.2-0.1L118.1-44.3L118.1-44.3z M100.8-43.2L100.8-43.2L100.8-43.2z M117.4-44.2l0.1,0.8C117.8-43.5,117.4-44,117.4-44.2z
	 M117.5-44.4l0.4,0.6C117.9-44.1,117.7-44.3,117.5-44.4z M102.5-43.4L102.5-43.4L102.5-43.4z M116.3-44.5l0.7,1.1
	C117-43.9,116.8-44.4,116.3-44.5z M104.7-43.9c-1.8,1.4-0.6,1.5,0.6,0.4L104.7-43.9z M115.5-45l-0.1-0.1v0.1
	C115.4-45,115.5-45,115.5-45z M115.9-45.4l-0.3,0.2C115.8-45.1,115.9-45,115.9-45.4z M116.3-45.6l0.7,1C117-45,117-45.8,116.3-45.6z
	 M105-44.5c-0.8,0.5-0.1,0.6,0.3,0.1L105-44.5L105-44.5z M105.1-46.4C105.1-46.4,105.1-46.5,105.1-46.4
	C105-46.5,105.1-46.4,105.1-46.4z M93.1-49.7L93.1-49.7L93.1-49.7z M106.5-47.5L106.5-47.5L106.5-47.5z M97.5-49.7l0-0.1
	C97.5-49.8,97.5-49.7,97.5-49.7L97.5-49.7z M97.6-49.9C97.6-49.9,97.5-49.9,97.6-49.9C97.5-49.9,97.6-49.9,97.6-49.9z M98.3-50.3
	L98.3-50.3L98.3-50.3z M98.3-50.3L98.3-50.3L98.3-50.3L98.3-50.3z M98.6-50.8L98.6-50.8L98.6-50.8z M98.7-50.8L98.7-50.8
	C98.7-50.8,98.7-50.8,98.7-50.8L98.7-50.8z M98.6-50.8L98.6-50.8L98.6-50.8L98.6-50.8z M95.9-51.6c0,0,0-0.1-0.1-0.1
	C95.8-51.8,95.9-51.6,95.9-51.6z M96.1-51.9C96.1-51.9,96.2-51.9,96.1-51.9C96.2-51.9,96.1-51.9,96.1-51.9z M95.7-52l-0.1-0.2
	C95.6-52.2,95.6-52,95.7-52z M95.4-52.3L95.4-52.3L95.4-52.3L95.4-52.3L95.4-52.3z M95.4-52.5L95.4-52.5L95.4-52.5L95.4-52.5z
	 M95.4-52.5L95.4-52.5L95.4-52.5L95.4-52.5z M100-51.1l-0.2,0C99.8-51.1,99.9-51.1,100-51.1z M98.2-52.6L98.2-52.6
	C98.2-52.6,98.2-52.6,98.2-52.6L98.2-52.6z M97.4-54.4L97.4-54.4C97.3-54.5,97.3-54.4,97.4-54.4L97.4-54.4z M97.9-54.3L97.9-54.3
	C97.9-54.3,97.9-54.3,97.9-54.3L97.9-54.3z M98.2-54.4c0,0,0.2-0.1,0.2-0.1L98.2-54.4L98.2-54.4z M98.8-54.6L98.8-54.6L98.8-54.6
	L98.8-54.6L98.8-54.6z M98.9-54.6l0.1-0.1C99-54.6,98.9-54.6,98.9-54.6L98.9-54.6z M99.2-54.7C99.2-54.7,99.1-54.7,99.2-54.7
	C99.1-54.7,99.2-54.7,99.2-54.7z M99.3-54.7L99.3-54.7L99.3-54.7L99.3-54.7z M110.2-57.8c0,0-0.1-0.1-0.2-0.1
	C110.1-57.9,110.2-57.8,110.2-57.8z M101.2-58.2l0.2-0.2C101.3-58.4,101.2-58.3,101.2-58.2z M101.4-58.4l0.1-0.1
	C101.5-58.5,101.4-58.5,101.4-58.4L101.4-58.4z M101.5-58.6l0.1-0.1C101.6-58.7,101.5-58.6,101.5-58.6L101.5-58.6z M107-58.5
	c0,0,0.1,0.1,0.1,0.1L107-58.5z M104.2-59.7c-0.3,0.2-0.7,0.8-1.1,0.5c-0.8,0.4-1.8,0.9-2.3,1.7c-2.3,0.1-0.4,1.7,0.4,2.5
	c-0.4,0.5,0.3,0.5,0.6,0.7c-0.3,0.2-0.6-0.1-0.8-0.3c0.7,1.4-0.7,0.2-1.1-0.2c-0.5,0-1.6,0.4-2.1,0.6c1,1.1,0.3,1.6,2.2,2.1
	c0.3,0,1.1-0.9,1.1-0.1c0,1.4-1.1,0.9-2,1.5c0-0.7-0.7,0.1-0.8,0.4c-0.6,0.2-1.3,1.3-0.5,1.6c-0.6,0.8,0.7,2,1.4,1.4
	c-0.2,0.8-0.2,1.5,0.8,1.5c0.1,0.3,0.7,0.4,1,0.4c0.2,0.4,0.7,0.3,1,0.1c-0.5,1.6-1.8,2.1-3,3c-0.6-0.4-1.5,0.3-1.9,0.6
	c0.3,0,1.6-0.7,1.6-0.1c0.1,0.1,2.1-1,1.9-0.4c0.9-1.1,2.7-1.8,3.7-2.8c-0.8-0.7,1.5-3.3,2.5-2.5c-1.1,0-1.5,1.1-1.3,2.1
	c0.8-0.2,2.9-1.1,2.2-2.2c0.3,0.1,0.7,0.1,0.9-0.1c0.1,0.1,1.4,0.6,1.1,0.9c0.5,0,2.8,0.5,3.2,0.1c0.9,0.7,3.3,2.4,2.8-0.2
	c0.1,0.8,1.8,1.3,1.9,2.1c0.6,0.3,1.6,0.9,1.6,1.6l0.3-0.7l0.6,1.2c1-1.1-0.1-1.8-1.2-1.7c-0.7-0.7-2.4-2.3-3.1-2.8
	c-0.3,0.2-0.9,1-1.3,0.8c-0.5-0.5-1.6-0.9-2.3-0.8c-0.4-0.8-1.1-11.2-2.6-11.1c-1.2,0.5-2.5-0.6-3.7-0.3c-0.1-0.7-1.1-0.3-1.2-0.9
	l-0.4,0.4L104.2-59.7L104.2-59.7z"/>
<polygon class="st0" points="22.3,17.6 21.6,17 20.9,17.2 21,18.5 20.1,19.7 20.9,21.4 21.1,23.3 22,23.8 22.6,22.9 23.6,22.2 
	24.8,21.9 26.2,20.8 24.8,19.6 24.8,19 22.3,17.6 "/>
<polygon class="st0" points="17.9,15.6 17.5,15.3 17.2,15.7 17.9,15.6 "/>
<polygon class="st0" points="16.1,14.6 16.2,13.7 15.7,13.6 16.1,14.6 "/>
<polygon class="st0" points="17.6,13.1 17.2,13.3 17.5,14.2 18.1,14.2 18.3,15 19,15.3 20.5,14.6 19.1,13.5 17.6,13.1 "/>
<polygon class="st0" points="14.5,12.1 14.3,12.7 15.3,12.7 16.3,12.9 15.8,12.1 14.5,12.1 "/>
<polygon class="st0" points="11.4,10.1 10.9,9.6 9.8,10.4 10.5,11.7 11,11.2 12.3,11.5 12.2,10.9 11.4,10.1 "/>
<polygon class="st0" points="4.4,6.9 2.7,7.5 2.5,8 3.2,8.4 4.1,8.7 4.8,7.3 4.4,6.9 "/>
</svg>
