<?xml version="1.0" encoding="utf-8"?>
<!-- Generator: Adobe Illustrator 28.3.0, SVG Export Plug-In . SVG Version: 6.00 Build 0)  -->
<svg version="1.1" id="Layer_1" xmlns="http://www.w3.org/2000/svg" xmlns:xlink="http://www.w3.org/1999/xlink" x="0px" y="0px"
	 viewBox="0 0 29 29" style="enable-background:new 0 0 29 29;" xml:space="preserve">
<style type="text/css">
	.st0{fill:#333333;}
</style>
<path class="st0" d="M23.8,22.5c0,0-0.6-0.2-0.3-0.7c-0.2-0.1-0.2,0-0.1,0.1c-0.3,0.3-0.1-0.4-0.1-0.6c-0.1-0.4-0.5-0.4-0.7-0.7
	c-0.4-0.3-0.7,0.3-0.9,0.3c-0.3-0.7-1.4,0-1.6-0.4c-0.1-0.3-0.1,0.2-0.2,0.1c-0.3,0-0.7,0.1-0.9,0.3c0.1,0.2,0.6-0.2,0.2,0.2
	c-0.2,0.2,0.2,0.2,0.3,0.3c-0.1,0.2-0.2,0-0.4,0c-0.1-0.1-0.3,0.1-0.3,0.1c-0.1-0.2-0.2-0.2-0.3,0c-0.4,0-0.3-0.1-0.5-0.3
	c-0.3-0.1-0.3,0.3-0.8,0.1c-0.4-0.2-1,0.3-1,0.1c0-0.2-0.2,0-0.2,0.1c0.2,0.2,0,0.3-0.2,0.4c-0.6,0.1-1.3,1.3-1.2,1.2
	c-0.1-0.3,0.6-0.9,0.4-0.8c-0.4,0.2-0.6,0.6-0.4,1.4c0.3,0.5-0.9,0-1.1-0.2c-0.2-0.6-1-2.3-1.7-2.2c-0.3-0.2-0.4,0.3-0.6,0.5
	c-0.8-0.1-0.8-1-1.3-1.4c-1-1.3-2.6,0.4-4.5-1.3c-1.2-1-1.4,0.2-2.2-1.4c-0.2-0.1-0.4-0.4-0.7-0.6C2.3,17.1,2,17,2.2,16.6
	c-0.1-0.3-0.3-0.6-0.5-1c0.1-0.3,0.2-0.3-0.1-0.6c-0.1-0.1-0.1-0.4,0.1-0.5c0,0.1,0.1,0.4,0.1,0.1c-0.1-0.1,0.1-0.5-0.1-0.3
	c-0.2,0.3-0.4-0.8-0.4-1c0.2-0.3-0.1-0.5-0.1-0.8c0.5-0.4,0.3-0.9,0.4-1.4c0.6-1.5,1.2-2.1,1-3.4c0-0.7,0.3,0.1,0.7,0
	C3.6,8,3.3,8.2,3.4,8.5c0.4-1.5,0-1.1,1.8-0.7c4,1.3,9.3,0.5,11.8,1.4c0.3-0.1,0.6-0.1,0.9,0c-0.3,0.1-1.4,1.1-0.8,0.9
	c0.5-0.4,0.2,0.3,0.7,0c0.2-0.1,1.1-0.9,0.8-0.5c-0.2,0.3-0.2,0.3,0.1,0.2c0.2,0.1,0.4,0.3,0.6,0.2c0.4-0.2,0.6-0.4,0.9-0.1
	c0.4-0.2,0.2,0.1,0.5,0.2c0.2-0.2,0.2,0.1,0,0c-0.3,0.1-0.3,0.1-0.7,0c-0.6,0.4-0.6,0.2-1,1.1c0,0.3,0.3-0.2,0.3-0.3
	c0.2-0.1,0,0.3,0,0.4c-0.5,2.1,1.3,2.7,0.6,0.7c-0.1-0.4,0-0.9,0.2-1.1c0,0.6,0.2-0.2,0.2-0.3c0.4-0.4,1.2,0.3,0.9,0.8
	c0.1,0.2-0.3,0.2-0.1,0.4c0.3-0.1,0.5-0.6,0.6,0c0.3,0.5-0.3,0.7-0.2,1.2c0.7,0.3,1.3-0.5,1.8-0.9c0.4-0.2-0.2-0.5,0.3-0.7
	c1.5,0,0.5-0.8,1.4-1.5c0.5-0.2,1.4-0.3,1.5-0.7C26.7,9,26.6,8.5,26.6,8c0.1-0.9,1-0.8,1.1,0.2c0.1,0.3,0.8,0.3,0.5,0.7
	c0-0.1-0.4,0.3-0.3,0.4c-0.2,0.1-0.2-0.1-0.2,0.1c-0.2-0.2-0.2-0.1-0.2,0.2c-0.3,0.2-0.5,0.4-0.5,0.8c0,0.3,0.1,0.3,0,0.5
	c0.4,0.2,0.3,0.4,0.6,0.2c0,0.3-0.3,0.1-0.4,0.3c-0.1,0.4-0.2-0.1-0.2,0c0.1,0.4-0.7,0.4-0.9,0.8c0,0.1,0.6-0.3,0.8-0.3
	c-0.1,0.2-0.5,0.5-0.8,0.6c-0.3,0.1,0.1,0.2,0,0.6c-0.2,0.6-0.1,0.7-0.6,0.4c0.3,0.3,0.5,0.7,0.3,1.2c-0.1,0.7-0.2,0.1-0.1-0.2
	c0,0-0.4-0.2-0.4-0.3c0-0.1-0.2-0.4,0-0.7c-0.2,0.2-0.2,0.6,0,0.9c0.2,0.2-0.5,0-0.5-0.1c0.1-0.2-0.1,0,0,0.1
	c0.2-0.1,0.2,0.1,0.4,0.1c0.5,0.3,0,0.3,0.1,0.2c0.3,0.1,0.4,0.7,0.1,0.3c-0.1,0.1,0.2,0.2,0.3,0.1c0.1,0,0.3,0.4,0.3,0.5
	c-0.3-0.6,0,0.1-0.5,0.1c0.1,0.2,0.4-0.3,0.4,0.2c0-0.1,0-0.3,0.1-0.1c0.2,0.3-0.6,0.4-0.3,0.5c0,0.2-0.1,0.2-0.2,0.2
	c0.2,0.1,0.3-0.2,0.3,0c-0.2,0.3-0.7,0.3-0.7,0.8c-0.4,0.1-0.6,0.4-0.6,0.8c-0.5,0.4-0.9,0.9-0.9,1.7c0.3,0.9,1,1.6,1.3,2.6
	C25.2,24.2,24.1,23.2,23.8,22.5z M3.4,7.8C3.6,7.6,3.4,8,3.5,8C3.5,8.2,3.4,7.9,3.4,7.8z M3.3,7.6c0.1,0,0.1-0.1,0.2,0
	C3.4,7.7,3.3,7.8,3.3,7.6z"/>
</svg>
